<?xml version="1.0" encoding="utf-8"?>
<!-- Optimized SVG logo adapted from provided artwork. Primary blue set to #176EFF -->
<svg version="1.1" id="Layer_1" xmlns="http://www.w3.org/2000/svg" xmlns:xlink="http://www.w3.org/1999/xlink" x="0px" y="0px"
     viewBox="0 0 427.2 288.4" style="enable-background:new 0 0 427.2 288.4;" xml:space="preserve">
<style type="text/css">
    .st0{fill:#176EFF;}
    .st1{fill:#FFFFFF;}
    .st2{opacity:0.56;fill:#CECECE;}
</style>
<g>
    <g>
        <rect x="207.9" y="58" class="st0" width="5.4" height="5.4"/>
        <rect x="214.5" y="58" class="st0" width="5.4" height="5.4"/>
        <rect x="214.5" y="64.6" class="st0" width="5.4" height="5.4"/>
        <rect x="207.9" y="64.6" class="st0" width="5.4" height="5.4"/>
        <path class="st0" d="M288.9,101.8c-0.2-0.2-4-4-6.9-6.9l-0.7-0.7c-5.6-5.6-12.6-12.6-13.5-13.5c-4.4-4.4-10.5-6.9-16.8-6.9
            c-0.1,0-0.1,0-0.2,0c-6.4,0-12.3,2.5-16.8,7l-98.6,98.6l6.8,6.8l21.8-21.8c17.4,15.4,41.4,18.8,62.7,9
            c21.9-10.1,34.9-31.4,33.9-55.4l0-0.2c-0.2-3.3,1-6.7,3.5-9.2c2.4-2.5,5.7-3.9,9-3.9h18.7L288.9,101.8z M256.9,102.2
            c-2.8,3-4.6,6.7-5.4,10.6c-0.2,1.1-0.4,2.1-0.4,3.2c0,0.7,0,1.4,0,2.1c0.9,20.1-9.9,37.9-28.2,46.5c-17.6,8.2-37.6,5.6-52.1-7
            l70.1-70.1c2.7-2.7,6.3-4.2,10.2-4.2c3.8,0,7.4,1.5,10.2,4.2l7.9,7.9c-1.1,0.2-2.3,0.5-3.4,0.9C262.4,97.5,259.4,99.5,256.9,102.2
            z"/>
        <path class="st0" d="M152.3,150.3l7-7l-0.1-0.2c-3.6-6.9-5.5-14.7-5.5-22.5c0-13.1,5.1-25.4,14.4-34.6l45.7-45.7l27.3,27.3
            l0.1,0.1l0.2-0.1c3-0.9,6.1-1.4,9.3-1.4l0.2,0c0.6,0,1.1,0,1.7,0l0.8,0l-39.6-39.6l-52.5,52.5c-11.1,11-17.3,25.7-17.3,41.4
            c0,10.3,2.8,20.4,8,29.4L152.3,150.3z"/>
    </g>
    <g>
        <path class="st0" d="M41.9,234.9c2.5,6.3,7.4,10.1,14.1,10.1c4,0,6.9-1,8.7-3c1.8-2,2.7-4.3,2.7-7c0-3-0.9-5.4-2.7-7.1
            s-4.9-3.5-9.3-5.4c-4.5-1.9-7.8-3.9-9.9-5.8c-2.1-1.9-3.1-4.7-3.1-8.2c0-3.5,1.2-6.3,3.7-8.6c2.5-2.2,5.6-3.4,9.2-3.4
            c5.9,0,10.2,2.5,12.8,7.4l-3.2,1.7c-1.9-3.7-5.2-5.6-9.6-5.6c-5.3,0-9.2,3.5-9.2,8.4c0,2.9,0.8,5,3.1,6.8c1.2,0.9,2.3,1.6,3.3,2.1
            l4.6,2.2c5.1,2.3,7.7,3.7,10.3,6.2c2.7,2.4,3.7,5.3,3.7,9.5c0,8.1-5.7,13.5-15.2,13.5c-8.1,0-14.4-4.2-17.4-12L41.9,234.9z"/>
        <path class="st0" d="M78.6,247.6v-36.4h3.6v7c2.1-5,6.3-7.6,12.7-7.6c4.2,0,7.6,1.3,10.1,4c2.6,2.6,3.9,6.1,3.9,10.5v22.4h-3.6
            v-21.7c0-7.2-4.5-11.8-11.2-11.8c-7.2,0-11.9,5.6-11.9,14v19.6H78.6z"/>
        <path class="st0" d="M115.2,229.4c0-5.4,1.8-10,5.5-13.6c3.7-3.7,8.2-5.5,13.6-5.5s9.9,1.8,13.6,5.5c3.7,3.7,5.6,8.2,5.6,13.6
            c0,5.4-1.9,10-5.6,13.6c-3.7,3.7-8.2,5.5-13.6,5.5s-10-1.8-13.6-5.5C117,239.4,115.2,234.9,115.2,229.4z M118.8,229.4
            c0,4.5,1.4,8.2,4.4,11.3c3,3,6.7,4.5,11.1,4.5c4.4,0,8.1-1.5,11-4.5c3-3,4.5-6.8,4.5-11.3c0-4.5-1.5-8.2-4.5-11.2
            c-3-3-6.6-4.5-11-4.5c-4.4,0-8.2,1.5-11.1,4.5C120.3,221.2,118.8,225,118.8,229.4z"/>
        <path class="st0" d="M167.7,247.6l-13.1-36.4h3.7l10.5,29.7l10.1-29.7h2.6l10,29.7l10.5-29.7h3.8l-13.1,36.4h-2.5l-10.1-29.9
            l-10.1,29.9H167.7z"/>
        <path class="st0" d="M212.1,247.6v-50.3h18.2c4,0,7.3,1.2,10,3.7c2.7,2.4,4.1,5.5,4.1,9.2c0,4.8-2.4,8.6-6.4,10.1
            c6.4,1.2,10.1,6.1,10.1,12.5c0,4.3-1.4,7.9-4.4,10.7c-2.9,2.8-6.5,4.2-10.9,4.2H212.1z M221.1,217.6h7.9c3.8,0,6.5-2.5,6.5-6.2
            c0-3.4-2.7-5.9-6.4-5.9h-8V217.6z M221.1,239.5h10.1c4.5,0,7.9-3.1,7.9-7.2c0-4-3.3-7.1-7.9-7.1h-10V239.5z"/>
        <path class="st0" d="M264.4,248.1l-14.9-36.9h8.9l10.6,26.5l10.9-26.5h8.9l-21.4,50.4h-8.8L264.4,248.1z"/>
        <path class="st0" d="M292.7,247.6v-36.4h8.6v5.4c1.7-3.8,5.7-6.1,10.8-6.1c1,0,1.9,0.1,2.6,0.2v8.4c-1.1-0.2-2.3-0.4-3.6-0.4
            c-6,0-9.8,3.8-9.8,9.7v19.1H292.7z"/>
        <path class="st0" d="M345.9,216.5v-19.2h8.7v50.3h-8.7v-5.3c-1.2,3.5-5.6,6.1-11.6,6.1c-5.1,0-9.5-1.8-13-5.4
            c-3.5-3.7-5.2-8.2-5.2-13.6c0-5.4,1.7-9.9,5.2-13.5c3.5-3.7,7.9-5.5,13-5.5C340.3,210.5,344.7,213,345.9,216.5z M343.3,237.4
            c2.2-2.1,3.2-4.8,3.2-7.9c0-3.2-1.1-5.8-3.2-7.9c-2.1-2.1-4.8-3.2-7.9-3.2c-3.1,0-5.6,1.1-7.7,3.2c-2,2.1-3,4.8-3,7.9
            c0,3.2,1,5.8,3,7.9c2.1,2.1,4.6,3.2,7.7,3.2C338.5,240.6,341.2,239.5,343.3,237.4z"/>
        <path class="st0" d="M364.2,236.5c1.7,2.6,5.2,4.5,9.6,4.5c4.5,0,6.5-1.7,6.5-4c0-1.2-0.9-2.2-2.1-2.9c-0.8-0.5-2.3-1-3.4-1.4
            c-1.1-0.4-3.2-1-4.5-1.5c-5.8-2.1-8.9-5-8.9-10.2c0-3.4,1.2-6,3.7-7.9c2.5-1.9,5.6-3,9.2-3c5.1,0,9,1.8,11.8,5.3l-4.8,5.1
            c-1.6-2-4-3-7.1-3c-2.7,0-4.4,1.3-4.4,3.2c0,1.2,0.6,1.9,1.7,2.5c0.6,0.4,2,0.9,3,1.3c1.1,0.3,3.1,1,4.5,1.5
            c6.7,2.4,9.7,5.6,9.7,10.8c0,6.7-5,11.5-14.9,11.5c-7.3,0-12.7-2.8-15-7.4L364.2,236.5z"/>
    </g>
</g>
</svg>
